<svg xmlns="http://www.w3.org/2000/svg" xmlns:xlink="http://www.w3.org/1999/xlink" width="185px" height="25px"><path fill-rule="evenodd" fill="#e61434" d="M182.846,7.461 L168.875,7.461 L164.133,3.179 L182.846,3.179 C184.036,3.179 185.000,4.138 185.000,5.320 C185.000,6.503 184.036,7.461 182.846,7.461 ZM182.059,12.962 C182.059,14.145 181.095,15.103 179.905,15.103 L167.828,15.103 L163.086,10.821 L179.905,10.821 C181.095,10.821 182.059,11.780 182.059,12.962 ZM178.635,19.992 C178.635,21.175 177.671,22.133 176.482,22.133 L167.216,22.133 L162.474,17.851 L176.482,17.851 C177.671,17.851 178.635,18.810 178.635,19.992 ZM150.785,22.794 C149.981,23.785 147.697,24.936 144.996,24.936 C139.272,24.936 135.381,21.451 135.381,15.761 C135.381,10.070 139.272,6.586 144.996,6.586 C147.761,6.586 149.820,7.609 150.785,8.792 L150.785,0.384 L155.930,0.384 L155.930,24.552 L151.106,24.552 L150.785,22.794 ZM145.736,10.774 C142.777,10.774 140.494,12.340 140.494,15.761 C140.494,19.118 142.874,20.716 145.736,20.716 C148.983,20.716 150.978,18.830 150.978,15.761 C150.978,12.852 148.983,10.774 145.736,10.774 ZM125.930,16.784 L125.930,24.552 L120.753,24.552 L120.753,6.970 L125.609,6.970 L125.930,9.303 C127.892,6.937 131.108,6.618 132.459,6.650 L132.459,11.317 C131.204,11.221 125.930,11.445 125.930,16.784 ZM110.652,5.115 C108.787,5.115 107.823,3.964 107.823,2.558 C107.823,1.183 108.787,0.000 110.652,0.000 C112.582,0.000 113.546,1.183 113.546,2.558 C113.546,3.964 112.582,5.115 110.652,5.115 ZM92.261,24.552 L81.295,24.552 L81.295,1.183 L91.843,1.183 C96.796,1.183 100.140,2.621 100.140,7.673 C100.140,10.358 98.789,11.637 96.924,12.340 C99.175,13.044 101.169,14.610 101.169,17.775 C101.169,23.433 96.860,24.552 92.261,24.552 ZM92.004,5.563 L86.827,5.563 L86.827,10.454 L91.972,10.454 C93.901,10.454 94.609,9.431 94.609,7.864 C94.609,6.298 93.451,5.563 92.004,5.563 ZM92.165,14.866 L86.827,14.866 L86.827,20.173 L92.261,20.173 C94.545,20.173 95.670,19.373 95.670,17.519 C95.670,15.537 94.545,14.866 92.165,14.866 ZM68.336,22.794 C67.532,23.785 65.248,24.936 62.547,24.936 C56.823,24.936 52.932,21.451 52.932,15.761 C52.932,10.070 56.823,6.586 62.547,6.586 C65.313,6.586 67.371,7.609 68.336,8.792 L68.657,6.970 L73.481,6.970 L73.481,24.552 L68.657,24.552 L68.336,22.794 ZM63.287,10.774 C60.328,10.774 58.045,12.340 58.045,15.761 C58.045,19.118 60.425,20.716 63.287,20.716 C66.535,20.716 68.529,18.830 68.529,15.761 C68.529,12.852 66.535,10.774 63.287,10.774 ZM32.062,17.615 C32.383,20.492 36.242,20.812 37.271,20.812 C40.165,20.812 41.581,19.661 42.191,18.766 L46.211,20.908 C45.407,22.155 42.867,25.000 37.271,25.000 C33.573,25.000 26.884,23.497 26.884,15.825 C26.884,8.152 33.701,6.682 37.271,6.682 C42.191,6.682 47.079,9.335 47.240,15.409 C47.240,16.752 47.144,17.615 47.144,17.615 L32.062,17.615 ZM37.239,10.870 C34.248,10.870 32.415,12.436 32.222,14.226 L41.773,14.226 C41.773,12.628 39.844,10.870 37.239,10.870 ZM10.869,10.198 C15.404,10.998 21.546,11.221 21.546,17.743 C21.546,22.922 17.461,25.000 11.448,25.000 C5.949,25.000 2.347,23.210 -0.000,21.356 L2.798,17.647 C4.663,19.054 8.458,20.460 11.384,20.460 C14.407,20.460 16.111,19.853 16.111,17.871 C16.111,15.761 13.892,15.537 10.419,15.058 C7.203,14.610 0.321,14.322 0.321,7.897 C0.321,2.334 5.917,0.831 10.419,0.831 C14.857,0.831 17.655,2.078 20.452,3.965 L17.494,7.673 C15.307,6.234 12.670,5.403 10.194,5.403 C8.586,5.403 5.820,5.403 5.820,7.705 C5.820,9.974 8.554,9.783 10.869,10.198 ZM113.292,6.970 L113.321,6.970 L113.321,24.552 L113.292,24.552 L108.112,24.552 L108.083,24.552 L108.083,6.970 L108.112,6.970 L113.292,6.970 Z"/></svg>